<svg width="27" height="27" fill="none" xmlns="http://www.w3.org/2000/svg"><g clip-path="url(#clip0)" fill="#3495BF"><path d="M15.99 13.996a2.488 2.488 0 11-4.977 0 2.488 2.488 0 014.976 0z"/><path d="M19.32 9.594a2.315 2.315 0 00-.558-.858 2.312 2.312 0 00-.858-.559c-.264-.102-.659-.223-1.386-.256-.788-.036-1.024-.044-3.017-.044-1.993 0-2.23.007-3.016.043-.728.034-1.124.155-1.386.257a2.31 2.31 0 00-.859.559c-.248.24-.439.534-.558.858-.103.263-.224.659-.257 1.386-.036.787-.044 1.024-.044 3.017 0 1.993.008 2.23.044 3.016.033.728.154 1.123.257 1.386.12.325.31.618.558.859.24.248.534.439.858.558.263.103.659.224 1.386.257.788.036 1.024.044 3.017.044 1.993 0 2.23-.008 3.016-.044.728-.033 1.123-.154 1.387-.257A2.472 2.472 0 0019.32 18.4c.102-.263.224-.658.257-1.386.036-.787.044-1.023.044-3.016s-.008-2.23-.044-3.017c-.033-.727-.154-1.123-.257-1.386zm-5.819 8.236a3.833 3.833 0 110-7.667 3.833 3.833 0 010 7.667zm3.985-6.922a.896.896 0 110-1.792.896.896 0 010 1.792z"/><path d="M13.501.996c-7.179 0-13 5.821-13 13s5.821 13 13 13 13-5.821 13-13-5.821-13-13-13zm7.42 16.078c-.036.794-.163 1.337-.347 1.812a3.817 3.817 0 01-2.183 2.183c-.475.184-1.018.31-1.812.347-.796.036-1.05.045-3.078.045-2.027 0-2.281-.009-3.078-.045-.794-.036-1.337-.163-1.812-.347a3.659 3.659 0 01-1.322-.861 3.659 3.659 0 01-.86-1.322c-.185-.475-.312-1.018-.348-1.812-.036-.796-.045-1.05-.045-3.078 0-2.027.009-2.282.045-3.078.036-.794.162-1.337.347-1.812.187-.498.481-.949.861-1.322.373-.38.824-.673 1.322-.86.475-.185 1.018-.311 1.812-.348.796-.036 1.05-.045 3.078-.045 2.027 0 2.282.009 3.078.045.794.037 1.337.163 1.812.347.498.187.949.481 1.322.861.38.373.674.824.86 1.322.186.475.312 1.018.348 1.813.036.795.045 1.05.045 3.077s-.009 2.282-.045 3.078z"/></g><defs><clipPath id="clip0"><path fill="#fff" transform="translate(.501 .996)" d="M0 0h26v26H0z"/></clipPath></defs></svg>